<svg xmlns="http://www.w3.org/2000/svg" viewBox="0 0 841.9 595.3"><g fill="#61DAFB"><path d="M666.3 296.5c0-32.5-40.7-63.3-103.1-82.4 14.4-63.6 8-114.2-20.2-130.4-6.5-3.8-14.1-5.6-22.4-5.6v22.3c4.6 0 8.3.9 11.4 2.6 13.6 7.8 19.5 37.5 14.9 75.7-1.1 9.4-2.9 19.3-5.1 29.4-19.6-4.8-41-8.5-63.5-10.9-13.5-18.5-27.5-35.3-41.6-50 32.6-30.3 63.2-46.9 84-46.9V78c-27.5 0-63.5 19.6-99.9 53.6-36.4-33.8-72.4-53.2-99.9-53.2v22.3c20.7 0 51.4 16.5 84 46.6-14 14.7-28 31.4-41.3 49.9-22.6 2.4-44 6.1-63.6 11-2.3-10-4-19.7-5.2-29-4.7-38.2 1.1-67.9 14.6-75.8 3-1.8 6.9-2.6 11.5-2.6V78.5c-8.4 0-16 1.8-22.6 5.6-28.1 16.2-34.4 66.7-19.9 130.1-62.2 19.2-102.7 49.9-102.7 82.3 0 32.5 40.7 63.3 103.1 82.4-14.4 63.6-8 114.2 20.2 130.4 6.5 3.8 14.1 5.6 22.5 5.6 27.5 0 63.5-19.6 99.9-53.6 36.4 33.8 72.4 53.2 99.9 53.2 8.4 0 16-1.8 22.6-5.6 28.1-16.2 34.4-66.7 19.9-130.1 62-19.1 102.5-49.9 102.5-82.3zm-130.2-66.7c-3.7 12.9-8.3 26.2-13.5 39.5-4.1-8-8.4-16-13.1-24-4.6-8-9.5-15.8-14.4-23.4 14.2 2.1 27.9 4.7 41 7.9zm-45.8 106.5c-7.8 13.5-15.8 26.3-24.1 38.2-14.9 1.3-30 2-45.2 2-15.1 0-30.2-.7-45-1.9-8.3-11.9-16.4-24.6-24.2-38-7.6-13.1-14.5-26.4-20.8-39.8 6.2-13.4 13.2-26.8 20.7-39.9 7.8-13.5 15.8-26.3 24.1-38.2 14.9-1.3 30-2 45.2-2 15.1 0 30.2.7 45 1.9 8.3 11.9 16.4 24.6 24.2 38 7.6 13.1 14.5 26.4 20.8 39.8-6.3 13.4-13.2 26.8-20.7 39.9zm32.3-13c5.4 13.4 10 26.8 13.8 39.8-13.1 3.2-26.9 5.9-41.2 8 4.9-7.7 9.8-15.6 14.4-23.7 4.6-8 8.9-16.1 13-24.1zM421.2 430c-9.3-9.6-18.6-20.3-27.8-32 9 .4 18.2.7 27.5.7 9.4 0 18.7-.2 27.8-.7-9 11.7-18.3 22.4-27.5 32zm-74.4-58.9c-14.2-2.1-27.9-4.7-41-7.9 3.7-12.9 8.3-26.2 13.5-39.5 4.1 8 8.4 16 13.1 24 4.7 8 9.5 15.8 14.4 23.4zM420.7 163c9.3 9.6 18.6 20.3 27.8 32-9-.4-18.2-.7-27.5-.7-9.4 0-18.7.2-27.8.7 9-11.7 18.3-22.4 27.5-32zm-74 58.9c-4.9 7.7-9.8 15.6-14.4 23.7-4.6 8-8.9 16-13 24-5.4-13.4-10-26.8-13.8-39.8 13.1-3.1 26.9-5.8 41.2-7.9zm-90.5 125.2c-35.4-15.1-58.3-34.9-58.3-50.6 0-15.7 22.9-35.6 58.3-50.6 8.6-3.7 18-7 27.7-10.1 5.7 19.6 13.2 40 22.5 60.9-9.2 20.8-16.6 41.1-22.2 60.6-9.9-3.1-19.3-6.5-28-10.2zM310 490c-13.6-7.8-19.5-37.5-14.9-75.7 1.1-9.4 2.9-19.3 5.1-29.4 19.6 4.8 41 8.5 63.5 10.9 13.5 18.5 27.5 35.3 41.6 50-32.6 30.3-63.2 46.9-84 46.9-4.5-.1-8.3-1-11.3-2.7zm237.2-76.2c4.7 38.2-1.1 67.9-14.6 75.8-3 1.8-6.9 2.6-11.5 2.6-20.7 0-51.4-16.5-84-46.6 14-14.7 28-31.4 41.3-49.9 22.6-2.4 44-6.1 63.6-11 2.3 10.1 4.1 19.8 5.2 29.1zm38.5-66.7c-8.6 3.7-18 7-27.7 10.1-5.7-19.6-13.2-40-22.5-60.9 9.2-20.8 16.6-41.1 22.2-60.6 9.9 3.1 19.3 6.5 28.1 10.2 35.4 15.1 58.3 34.9 58.3 50.6-.1 15.7-23 35.6-58.4 50.6zM320.8 78.4z"/><circle cx="420.9" cy="296.5" r="45.7"/><path d="M520.5 78.1z"/></g></svg><?xml version="1.0" standalone="no"?>
<!DOCTYPE svg PUBLIC "-//W3C//DTD SVG 20010904//EN"
 "http://www.w3.org/TR/2001/REC-SVG-20010904/DTD/svg10.dtd">
<svg version="1.0" xmlns="http://www.w3.org/2000/svg"
 width="890.000000pt" height="958.000000pt" viewBox="0 0 890.000000 958.000000"
 preserveAspectRatio="xMidYMid meet">

<g transform="translate(0.000000,958.000000) scale(0.100000,-0.100000)"
fill="#000000" stroke="none">
<path d="M4300 9570 c0 -5 -20 -10 -44 -10 -25 0 -48 -4 -51 -10 -3 -5 -21
-10 -40 -10 -19 0 -37 -4 -40 -10 -3 -5 -19 -10 -35 -10 -16 0 -32 -4 -35 -10
-3 -5 -20 -10 -36 -10 -18 0 -28 -4 -24 -10 4 -6 -7 -10 -24 -10 -17 0 -31 -4
-31 -10 0 -5 -13 -10 -30 -10 -16 0 -30 -4 -30 -10 0 -5 -14 -10 -31 -10 -17
0 -28 -4 -24 -10 4 -6 -8 -10 -29 -10 -20 0 -36 -3 -36 -7 0 -12 -51 -33 -77
-33 -13 0 -23 -4 -23 -10 0 -5 -9 -10 -19 -10 -11 0 -21 -4 -23 -10 -1 -5 -13
-11 -25 -13 -12 -2 -26 -6 -29 -10 -4 -4 -16 -7 -26 -7 -10 0 -18 -3 -18 -8 0
-4 -18 -13 -41 -20 -53 -16 -133 -54 -137 -64 -2 -4 -12 -8 -23 -8 -10 0 -19
-4 -19 -10 0 -5 -5 -10 -10 -10 -6 0 -30 -9 -52 -20 -23 -11 -48 -20 -55 -20
-7 0 -13 -4 -13 -10 0 -5 -12 -10 -26 -10 -14 0 -23 -4 -19 -10 3 -5 -3 -10
-14 -10 -11 0 -23 -4 -26 -10 -3 -5 -15 -10 -26 -10 -10 0 -19 -3 -19 -7 0 -9
-49 -33 -67 -33 -7 0 -13 -4 -13 -10 0 -5 -5 -10 -10 -10 -15 0 -105 -43 -108
-52 -2 -4 -10 -8 -17 -8 -7 0 -15 -3 -17 -7 -1 -5 -25 -19 -53 -33 -27 -14
-52 -27 -55 -30 -3 -3 -31 -18 -62 -34 -32 -15 -60 -32 -63 -37 -4 -5 -11 -7
-16 -4 -5 4 -9 2 -9 -2 0 -5 -16 -15 -35 -22 -19 -7 -35 -17 -35 -22 0 -5 -9
-9 -20 -9 -11 0 -20 -4 -20 -10 0 -5 -9 -10 -20 -10 -11 0 -20 -4 -20 -10 0
-5 -7 -10 -15 -10 -7 0 -18 -7 -23 -16 -5 -9 -11 -15 -13 -14 -6 2 -43 -13
-49 -20 -3 -3 -22 -14 -43 -24 -21 -10 -41 -24 -44 -32 -3 -8 -16 -14 -28 -14
-13 0 -25 -3 -27 -7 -3 -8 -69 -46 -115 -68 -13 -5 -23 -13 -23 -17 0 -5 -7
-8 -16 -8 -8 0 -12 -4 -9 -10 3 -5 -3 -10 -14 -10 -12 0 -21 -4 -21 -10 0 -5
-9 -10 -20 -10 -11 0 -20 -3 -20 -8 0 -4 -14 -13 -31 -21 -17 -7 -28 -19 -25
-26 3 -8 -2 -11 -13 -8 -9 2 -25 -5 -35 -16 -11 -12 -26 -21 -34 -21 -8 0 -22
-8 -31 -18 -9 -9 -29 -24 -46 -32 -42 -20 -179 -112 -183 -122 -2 -4 -9 -8
-16 -8 -7 0 -21 -8 -32 -17 -11 -10 -30 -24 -42 -30 -12 -7 -32 -19 -44 -25
-12 -7 -27 -16 -32 -21 -6 -4 -49 -34 -96 -67 -281 -195 -451 -328 -581 -455
-36 -36 -71 -65 -76 -65 -18 0 -133 -122 -126 -133 3 -6 1 -7 -5 -3 -6 3 -19
-5 -29 -20 -10 -14 -31 -39 -48 -56 -16 -17 -29 -37 -27 -45 2 -8 -1 -12 -6
-9 -30 18 -148 -250 -155 -349 0 -11 -5 -23 -10 -26 -5 -3 -13 -35 -18 -70 -4
-35 -15 -89 -24 -119 -8 -30 -15 -73 -15 -95 0 -22 -7 -65 -15 -95 -9 -30 -20
-109 -25 -175 -6 -66 -15 -147 -20 -180 -12 -69 -27 -281 -42 -575 -15 -308
-15 -1315 0 -1565 7 -115 15 -253 18 -305 3 -52 9 -126 14 -165 5 -38 13 -115
20 -170 14 -125 29 -242 35 -275 3 -14 10 -56 15 -95 5 -38 14 -90 20 -115 6
-25 15 -69 20 -98 5 -29 13 -59 19 -66 6 -7 8 -16 4 -19 -3 -4 0 -13 7 -22 7
-8 10 -15 7 -15 -6 0 21 -98 31 -115 4 -5 8 -18 9 -29 4 -23 67 -139 101 -186
52 -71 159 -185 242 -257 47 -42 96 -85 110 -97 237 -209 778 -588 1226 -859
399 -241 669 -391 688 -380 6 3 8 2 3 -2 -10 -12 98 -71 408 -224 701 -347
1201 -516 1465 -498 332 24 890 240 1670 648 511 267 951 534 1498 909 362
247 740 570 875 746 96 126 146 260 206 549 29 140 45 249 90 641 19 163 46
685 35 692 -11 8 -6 102 6 102 14 0 20 550 9 775 -7 121 -11 263 -10 315 1
132 -16 424 -40 680 -29 306 -47 439 -89 655 -61 310 -118 449 -247 605 -139
167 -482 456 -808 681 -44 31 -118 82 -165 115 -211 147 -726 468 -752 468 -9
0 -15 2 -13 5 7 6 -98 70 -295 178 -30 17 -97 54 -148 82 -140 78 -540 280
-691 350 -247 114 -590 251 -716 286 -27 8 -81 24 -120 35 -108 33 -177 42
-342 47 -103 3 -153 1 -153 -7z m385 -285 c415 -109 1053 -404 1825 -843 551
-314 1217 -759 1510 -1010 132 -113 280 -265 326 -334 129 -193 209 -665 256
-1503 16 -295 16 -1307 0 -1590 -31 -532 -62 -820 -123 -1129 -38 -193 -85
-315 -158 -410 -51 -66 -226 -236 -318 -310 -40 -32 -70 -63 -66 -69 3 -5 2
-7 -4 -4 -5 3 -34 -13 -64 -36 -109 -85 -278 -207 -439 -316 -91 -62 -164
-117 -162 -123 1 -5 -2 -7 -7 -4 -5 4 -78 -37 -162 -90 -1098 -691 -2185
-1205 -2604 -1231 -124 -8 -261 21 -505 105 -348 120 -985 424 -1463 699 -70
40 -129 73 -131 73 -7 0 -392 233 -556 337 -746 470 -1217 856 -1323 1085
-205 442 -292 2228 -172 3533 30 319 72 584 122 760 48 170 83 227 221 369
197 201 461 405 914 706 485 323 1002 621 1548 893 270 135 382 187 660 302
103 43 387 135 480 156 116 26 259 20 395 -16z"/>
<path d="M4420 9204 c-146 -21 -239 -43 -375 -89 -80 -27 -365 -141 -451 -180
-43 -20 -110 -51 -149 -68 -127 -57 -567 -282 -764 -392 -580 -321 -1104 -654
-1491 -948 -179 -136 -249 -195 -368 -311 -108 -105 -169 -180 -202 -251 -93
-201 -157 -616 -202 -1320 -18 -272 -18 -1431 0 -1695 47 -715 110 -1121 203
-1318 147 -309 1061 -968 2179 -1572 607 -328 1096 -542 1440 -631 221 -57
365 -39 720 91 728 267 1978 966 2715 1518 213 160 289 223 419 350 162 160
210 240 260 438 109 434 163 1200 153 2159 -9 828 -55 1377 -148 1760 -55 228
-99 304 -275 475 -134 130 -269 240 -485 397 -892 650 -2293 1395 -2917 1552
-65 17 -229 44 -235 40 -1 -1 -13 -3 -27 -5z m68 -1919 c51 -21 677 -644 703
-700 23 -49 24 -113 4 -163 -19 -45 -166 -196 -217 -223 -44 -22 -115 -25
-162 -5 -33 14 -35 13 -65 -18 -17 -18 -31 -36 -31 -42 0 -5 324 -333 721
-729 396 -396 729 -734 739 -751 11 -16 26 -57 35 -90 29 -109 -5 -223 -91
-307 -68 -66 -136 -90 -234 -85 -140 8 -98 -28 -905 779 l-731 729 -35 -37
c-33 -35 -35 -40 -23 -63 20 -37 17 -117 -6 -166 -30 -60 -187 -210 -236 -223
-59 -16 -105 -13 -149 10 -48 25 -645 615 -686 678 -33 51 -39 127 -15 184 15
37 174 201 215 221 45 23 95 27 146 11 27 -8 50 -13 51 -12 14 12 476 473 526
524 l67 68 -14 53 c-12 44 -12 60 -1 103 12 44 27 65 107 146 52 52 108 100
124 108 41 18 118 18 163 0z m-430 -2546 c52 -18 62 -56 62 -227 l0 -150 89
-4 c98 -3 139 -22 152 -69 4 -13 7 -115 8 -227 1 -157 -2 -211 -14 -238 -27
-66 -1 -64 -830 -64 -829 0 -803 -2 -830 64 -21 51 -21 421 0 472 19 46 63 64
159 64 l75 0 3 166 3 166 33 29 32 29 514 0 c338 0 523 -4 544 -11z m-1452
-1204 c52 -169 224 -651 235 -656 8 -4 22 -10 32 -13 11 -4 17 -16 17 -36 l0
-30 -155 0 -155 0 0 35 c0 34 2 35 36 35 l36 0 -7 38 c-4 20 -13 52 -21 70
l-13 33 -130 -2 -131 -1 -15 -56 c-21 -76 -21 -76 22 -82 34 -5 38 -8 41 -37
l3 -33 -141 0 -141 0 3 33 c3 27 7 33 31 35 35 4 26 -17 163 390 l109 322 85
-2 84 -3 12 -40z m2262 8 c-3 -36 -5 -38 -40 -41 l-38 -3 0 -160 c0 -87 2
-159 4 -159 3 0 33 35 67 78 198 243 194 237 173 240 -61 9 -64 11 -64 47 l0
35 146 0 145 0 -3 -37 c-3 -36 -5 -38 -46 -44 -23 -3 -49 -12 -56 -20 -7 -8
-52 -58 -100 -112 l-87 -97 38 -44 c21 -24 76 -106 122 -182 99 -164 107 -174
138 -174 20 0 23 -5 23 -35 l0 -35 -102 0 -103 0 -21 33 c-11 17 -51 89 -89
158 -37 70 -76 137 -85 149 l-16 22 -43 -56 -42 -56 3 -88 3 -87 40 -5 c37 -5
40 -8 43 -37 l3 -33 -165 0 -166 0 0 34 c0 33 2 35 38 38 l37 3 3 312 2 312
-37 3 c-36 3 -38 5 -41 41 l-3 37 161 0 161 0 -3 -37z m-544 -49 c3 -26 6 -62
6 -80 l0 -34 80 0 80 0 0 -40 0 -40 -80 0 -80 0 0 -194 c0 -160 3 -196 15
-206 14 -12 33 -11 119 2 29 5 44 -49 20 -67 -34 -25 -139 -48 -198 -43 -105
9 -116 37 -116 311 l0 197 -33 0 c-29 0 -33 3 -31 27 0 21 8 30 33 40 37 16
65 58 82 125 13 48 13 48 55 48 l41 0 7 -46z m2284 -36 l3 -78 79 0 80 0 0
-40 0 -40 -80 0 -80 0 1 -177 c1 -219 3 -227 51 -231 21 -2 53 1 72 6 33 10
35 9 41 -20 4 -16 3 -34 -2 -39 -20 -20 -130 -49 -184 -49 -51 0 -63 4 -91 29
l-33 29 -5 224 -5 223 -32 3 c-28 3 -33 7 -33 31 0 22 7 29 35 40 37 13 54 37
74 106 7 22 14 45 16 51 2 6 23 10 47 10 l43 -1 3 -77z m-3496 -308 c3 -208 5
-230 22 -249 26 -28 86 -28 137 1 l39 22 -2 190 -3 191 -30 5 c-25 4 -31 10
-33 36 -3 28 0 32 29 38 17 3 67 6 110 6 l79 0 0 -260 0 -260 30 0 c27 0 30
-3 30 -34 0 -34 -1 -35 -52 -41 -91 -11 -121 -4 -137 31 l-14 32 -50 -32 c-65
-40 -171 -49 -226 -18 -66 36 -75 71 -81 297 l-5 199 -25 6 c-20 5 -25 12 -25
38 0 30 2 31 50 37 92 10 130 10 142 2 9 -6 13 -74 15 -237z m857 234 l71 -16
0 -94 0 -94 -48 0 -49 0 -13 58 c-16 74 -24 82 -76 82 -81 0 -116 -65 -115
-216 0 -94 20 -152 65 -194 23 -21 37 -25 85 -24 31 1 71 8 88 18 42 21 48 21
62 -10 15 -34 9 -41 -63 -75 -116 -55 -278 -31 -335 49 -75 105 -90 267 -35
374 37 73 109 128 191 147 58 14 94 13 172 -5z m1777 -29 c19 -15 38 -41 45
-63 9 -28 20 -258 19 -404 0 -10 9 -18 23 -20 17 -2 23 -11 25 -34 4 -38 -11
-44 -109 -44 -70 0 -79 6 -79 51 0 16 -6 15 -46 -14 -42 -29 -52 -32 -124 -32
-84 0 -112 12 -153 67 -25 33 -34 118 -17 158 29 69 130 119 273 135 54 6 57
8 57 33 -1 99 -80 128 -220 81 -61 -21 -64 -21 -77 -4 -30 42 -10 69 77 101
105 38 248 33 306 -11z m374 -23 l1 -47 20 28 c39 52 142 97 189 82 18 -6 20
-15 20 -86 0 -78 0 -80 -21 -68 -27 14 -114 7 -154 -12 l-30 -14 -3 -172 -2
-172 57 -3 c57 -3 58 -3 61 -35 l3 -33 -170 0 -171 0 0 35 c0 33 2 35 35 35
l35 0 0 205 0 204 -32 9 c-30 8 -33 12 -33 48 l0 39 80 11 c102 13 115 7 115
-54z m-3844 -732 c31 0 64 -33 64 -64 0 -13 -9 -35 -21 -50 -11 -14 -16 -26
-10 -26 21 0 51 -41 51 -69 0 -17 -10 -42 -24 -58 -23 -26 -29 -28 -120 -31
-70 -3 -96 -1 -96 8 0 7 9 14 20 17 19 5 20 14 20 125 0 111 -1 120 -20 125
-36 10 -21 22 33 26 28 2 58 2 65 0 8 -2 25 -3 38 -3z m2232 -58 c11 -32 33
-92 48 -134 16 -46 32 -78 40 -78 8 0 14 -7 14 -15 0 -11 -12 -15 -50 -15 -50
0 -64 11 -35 28 12 6 14 14 6 33 -8 23 -14 25 -66 24 -37 0 -59 -6 -65 -15
-14 -22 -12 -37 5 -44 30 -11 14 -26 -28 -26 -53 0 -64 9 -39 30 15 12 69 148
107 267 2 6 13 9 23 6 13 -3 27 -24 40 -61z m-1988 48 c0 -5 -9 -10 -20 -10
-19 0 -20 -7 -20 -124 0 -116 1 -125 20 -131 39 -12 19 -25 -40 -25 -59 0 -83
16 -40 27 19 5 20 14 20 129 0 117 -1 124 -20 124 -11 0 -20 5 -20 10 0 6 27
10 60 10 33 0 60 -4 60 -10z m249 -3 c45 -23 64 -61 64 -125 0 -114 -54 -162
-185 -162 -74 0 -113 15 -69 27 20 5 21 12 21 129 0 104 -2 124 -15 124 -8 0
-15 5 -15 10 0 15 170 12 199 -3z m451 -43 c0 -48 -2 -55 -14 -44 -8 6 -16 26
-18 43 -3 29 -6 32 -36 32 l-33 0 -2 -123 -2 -122 28 0 c18 0 27 -5 27 -15 0
-13 -13 -15 -72 -13 -70 3 -94 17 -47 28 21 5 22 10 21 120 -1 63 -2 118 -2
123 0 4 -14 7 -30 7 -31 0 -34 -3 -44 -52 -10 -46 -26 -32 -26 22 l0 50 125 0
125 0 0 -56z m160 46 c0 -5 -9 -10 -20 -10 -19 0 -20 -7 -20 -124 0 -117 1
-124 21 -129 38 -10 9 -27 -47 -27 -54 0 -75 16 -34 27 19 5 20 14 20 125 0
111 -1 120 -20 125 -40 11 -18 23 40 23 33 0 60 -4 60 -10z m160 0 c0 -5 -9
-10 -20 -10 -19 0 -20 -7 -20 -125 l0 -125 51 0 c47 0 52 2 62 30 15 39 39 41
33 3 -2 -16 -5 -36 -5 -45 -1 -16 -13 -18 -105 -18 -64 0 -107 4 -111 11 -4 6
2 13 14 16 20 5 21 12 21 123 0 111 -1 118 -22 133 -22 15 -20 16 40 16 35 1
62 -3 62 -9z m260 0 c0 -5 -9 -10 -20 -10 -19 0 -20 -7 -20 -125 l0 -125 54 0
c52 0 55 1 61 30 9 43 40 41 31 -1 -3 -17 -6 -38 -6 -45 0 -11 -22 -14 -104
-14 -64 0 -107 4 -111 11 -4 6 2 13 14 16 20 5 21 12 21 129 0 101 -3 124 -14
124 -8 0 -18 5 -21 10 -4 6 17 10 54 10 34 0 61 -4 61 -10z m478 1 c15 -9 13
-63 -3 -68 -6 -2 -16 10 -22 27 -10 27 -16 30 -53 30 -34 0 -48 -6 -76 -34
-29 -29 -34 -41 -34 -82 0 -95 52 -153 123 -140 37 7 37 7 37 56 0 47 -2 50
-25 50 -16 0 -25 6 -25 15 0 11 13 15 54 15 56 0 82 -15 52 -32 -11 -6 -16
-23 -16 -59 0 -60 -7 -64 -102 -64 -63 0 -70 2 -100 32 -28 28 -33 40 -36 97
-4 54 -1 71 18 101 12 19 34 42 48 50 29 15 139 20 160 6z m432 0 c0 -5 -9
-11 -19 -13 -18 -3 -16 -11 22 -117 l40 -114 35 114 c25 78 32 114 24 117 -27
9 -9 22 28 22 38 0 54 -13 28 -23 -7 -2 -33 -66 -58 -141 -33 -103 -48 -136
-61 -136 -9 0 -21 12 -27 28 -6 15 -26 68 -45 117 -19 50 -38 100 -42 113 -3
12 -13 22 -21 22 -8 0 -14 5 -14 10 0 6 25 10 55 10 30 0 55 -4 55 -9z m394
-7 c10 -26 7 -44 -8 -44 -7 0 -16 9 -19 20 -4 17 -14 20 -56 20 l-51 0 0 -55
0 -55 34 0 c21 0 36 6 40 15 11 30 26 14 26 -30 0 -33 -4 -45 -15 -45 -8 0
-15 7 -15 15 0 10 -11 15 -35 15 l-35 0 0 -55 0 -55 60 0 c55 0 61 2 70 25 12
32 30 32 30 1 0 -54 -4 -56 -121 -56 -104 0 -129 8 -93 28 12 7 15 29 15 118
0 60 0 115 -1 122 0 6 -7 12 -15 12 -8 0 -15 5 -15 10 0 6 40 10 99 10 81 0
100 -3 105 -16z m176 7 c0 -5 -9 -11 -20 -14 -19 -5 -20 -14 -20 -126 l0 -121
54 0 c51 0 55 2 65 30 19 57 41 25 25 -37 -6 -22 -11 -23 -110 -23 -86 0 -104
3 -104 15 0 8 6 14 13 13 9 -2 13 29 15 125 2 108 0 127 -13 127 -8 0 -15 5
-15 10 0 6 25 10 55 10 30 0 55 -4 55 -9z m464 -13 c9 -35 7 -48 -7 -48 -8 0
-19 11 -25 25 -10 22 -18 25 -62 25 l-50 0 0 -55 0 -55 40 0 c29 0 40 4 40 15
0 8 7 15 15 15 11 0 15 -12 15 -45 0 -33 -4 -45 -15 -45 -8 0 -15 7 -15 15 0
11 -11 15 -40 15 l-40 0 0 -55 c0 -45 3 -55 18 -57 9 0 23 -2 29 -2 7 -1 14
-6 15 -11 2 -6 -26 -11 -64 -13 -72 -3 -81 3 -47 31 12 11 18 25 15 33 -3 9
-6 60 -6 115 0 81 -3 99 -15 99 -8 0 -15 5 -15 10 0 6 41 10 104 10 99 0 104
-1 110 -22z m227 -112 c25 -71 53 -133 63 -138 30 -17 16 -28 -34 -28 -38 0
-50 4 -50 15 0 8 6 15 14 15 14 0 11 35 -3 45 -19 11 -105 14 -117 4 -19 -15
-18 -45 2 -53 28 -11 4 -26 -42 -26 -44 0 -57 12 -29 27 12 7 105 246 105 270
0 2 10 3 23 1 19 -3 29 -23 68 -132z m209 124 c0 -5 -9 -10 -20 -10 -19 0 -20
-7 -20 -125 l0 -125 54 0 c51 0 55 2 65 30 19 57 41 25 25 -37 -6 -22 -11 -23
-110 -23 -65 0 -104 4 -104 10 0 6 7 13 15 16 12 5 15 29 15 130 0 104 -2 124
-15 124 -8 0 -15 5 -15 10 0 6 25 10 55 10 30 0 55 -4 55 -10z m260 0 c0 -5
-9 -10 -20 -10 -19 0 -20 -7 -20 -125 l0 -125 54 0 c51 0 55 2 65 30 19 57 41
25 25 -37 -6 -22 -11 -23 -110 -23 -86 0 -104 3 -104 15 0 8 7 15 15 15 13 0
15 20 15 120 0 98 -3 122 -15 126 -32 13 -13 24 40 24 30 0 55 -4 55 -10z
m314 4 c22 -8 22 -74 1 -74 -8 0 -15 8 -15 18 0 41 -63 58 -94 26 -32 -31 -16
-58 59 -95 59 -29 78 -52 78 -91 0 -45 -41 -78 -98 -78 -72 0 -95 14 -95 55 0
44 26 48 35 6 4 -20 14 -31 31 -35 33 -9 73 3 84 24 17 31 0 57 -54 83 -66 33
-89 59 -88 99 1 45 32 68 92 68 27 0 55 -3 64 -6z"/>
<path d="M4345 7040 l-60 -60 300 -300 300 -300 60 60 60 60 -300 300 -300
300 -60 -60z"/>
<path d="M4202 6677 l-42 -43 106 -104 c119 -119 139 -148 130 -195 -10 -53
-71 -91 -124 -79 -16 4 -76 55 -142 120 l-116 114 -57 -58 -58 -58 41 -46 c33
-38 40 -54 40 -86 0 -56 -32 -91 -87 -99 -39 -5 -45 -2 -90 40 l-49 46 -42
-42 c-23 -24 -42 -46 -42 -50 0 -10 357 -366 369 -370 10 -2 591 569 591 581
0 11 -364 372 -376 372 -5 0 -29 -19 -52 -43z"/>
<path d="M3347 6042 l-57 -57 300 -300 300 -300 60 60 60 60 -297 297 c-164
164 -300 298 -303 298 -3 0 -31 -26 -63 -58z"/>
<path d="M4482 5907 l-82 -82 355 -355 c294 -294 357 -352 367 -341 10 11 10
12 1 7 -7 -4 -13 -3 -13 2 0 5 28 17 63 28 34 10 68 24 75 31 16 16 25 16 39
2 8 -8 15 -6 24 4 12 13 17 13 39 -6 14 -12 0 5 -30 37 -63 68 -748 756 -753
756 -1 0 -39 -37 -85 -83z m826 -691 c-7 -8 -15 -12 -17 -11 -5 6 10 25 20 25
5 0 4 -6 -3 -14z m-198 -45 c0 -6 -4 -12 -8 -15 -5 -3 -9 1 -9 9 0 8 4 15 9
15 4 0 8 -4 8 -9z"/>
<path d="M3137 4543 c-4 -3 -7 -46 -7 -95 l0 -88 395 0 395 0 0 95 0 95 -388
0 c-214 0 -392 -3 -395 -7z"/>
<path d="M2892 4062 l3 -97 633 -3 632 -3 0 100 0 101 -635 0 -636 -1 3 -97z"/>
<path d="M2477 3445 c-3 -11 -26 -90 -51 -177 -25 -86 -46 -163 -46 -172 0
-14 16 -16 105 -16 58 0 105 4 105 9 0 5 -18 67 -40 137 -21 71 -45 154 -53
184 -10 39 -16 49 -20 35z"/>
<path d="M5590 3081 c-95 -19 -135 -95 -90 -168 17 -28 26 -33 57 -33 21 0 53
9 71 20 l32 20 0 85 c0 94 3 90 -70 76z"/>
<path d="M2199 2576 c-2 -2 -2 -27 -1 -55 4 -50 4 -51 36 -51 56 0 87 58 50
94 -14 14 -74 23 -85 12z"/>
<path d="M2199 2408 c-2 -51 2 -72 15 -80 19 -12 70 1 89 23 38 46 10 89 -59
89 -43 0 -44 -1 -45 -32z"/>
<path d="M4437 2487 l-26 -77 50 0 c27 0 49 4 49 8 0 4 -11 39 -23 77 l-24 69
-26 -77z"/>
<path d="M2640 2456 c0 -116 1 -125 20 -131 28 -9 83 11 110 39 18 20 22 36
22 84 0 33 -5 69 -11 81 -16 28 -62 51 -106 51 l-35 0 0 -124z"/>
<path d="M5876 2493 c-10 -32 -21 -64 -23 -70 -4 -9 9 -13 46 -13 48 0 61 7
44 24 -5 4 -8 11 -8 14 -1 20 -29 102 -34 102 -4 0 -15 -26 -25 -57z"/>
</g>
</svg>
